<?xml version="1.0" encoding="utf-8"?>
<!-- Generator: Adobe Illustrator 18.1.1, SVG Export Plug-In . SVG Version: 6.00 Build 0)  -->
<svg version="1.1" id="Layer_1" xmlns:sketch="http://www.bohemiancoding.com/sketch/ns"
	 xmlns="http://www.w3.org/2000/svg" xmlns:xlink="http://www.w3.org/1999/xlink" x="0px" y="0px" viewBox="-271 88.3 298 420"
	 enable-background="new -271 88.3 298 420" xml:space="preserve">
<title>Slice 1</title>
<description>Created with Sketch (http://www.bohemiancoding.com/sketch)</description>
<g id="Layer_1_1_">
	<path id="Shape_1_" fill="#1572B6" d="M-243.9,474.6l-27.1-303.6H26.5L-0.6,474.5l-121.8,33.8L-243.9,474.6z"/>
	<path id="Shape_2_" fill="#33A9DC" d="M-122.2,482.5l98.4-27.3l23.2-259.4h-121.6V482.5z"/>
	<g id="Group" transform="translate(55.000000, 142.000000)">
		<path id="Shape_3_" fill="#FFFFFF" d="M-177.2,163.8h49.3l3.4-38.1h-52.7V88.4h0.1h93.2l-0.9,10L-93.9,201h-83.3V163.8z"/>
		<path id="Shape_4_" fill="#EBEBEB" d="M-177,260.5l-0.2,0l-41.5-11.2l-2.7-29.7h-20.2h-17.2l5.2,58.5l76.3,21.2l0.2,0V260.5z"/>
		<path id="Shape_5_" fill="#FFFFFF" d="M-131.1,199.4l-4.5,49.9l-41.5,11.2v38.7l76.3-21.2l0.6-6.3l6.5-72.4H-131.1z"/>
		<path id="Shape_6_" fill="#EBEBEB" d="M-177.1,88.4v23.1v14v0.1h-89.8h-0.1l-0.7-8.4l-1.7-18.9l-0.9-10H-177.1z"/>
		<path id="Shape_7_" fill="#EBEBEB" d="M-177.2,163.8v23.1v14v0.1H-218h-0.1l-0.7-8.4l-1.7-18.9l-0.9-10H-177.2z"/>
	</g>
</g>
</svg>
