<?xml version="1.0" encoding="utf-8"?>
<!-- Generator: Adobe Illustrator 19.1.1, SVG Export Plug-In . SVG Version: 6.00 Build 0)  -->
<svg version="1.1" id="Layer_1" xmlns="http://www.w3.org/2000/svg" xmlns:xlink="http://www.w3.org/1999/xlink" x="0px" y="0px"
	 width="874.08px" height="200.36px" viewBox="0 0 874.08 200.36" enable-background="new 0 0 874.08 200.36" xml:space="preserve">
<g>
	<path fill="#F7F7F7" d="M281.86,65.13c-0.37-0.49-1.66-1.41-3.87-2.77c-2.21-1.35-4.98-2.77-8.3-4.24s-6.95-2.77-10.89-3.87
		c-3.94-1.11-7.87-1.66-11.81-1.66c-10.82,0-16.24,3.63-16.24,10.89c0,2.21,0.58,4.06,1.75,5.53c1.17,1.48,2.89,2.8,5.17,3.97
		c2.27,1.17,5.13,2.25,8.58,3.23c3.44,0.99,7.44,2.09,11.99,3.32c6.27,1.72,11.93,3.6,16.97,5.63c5.04,2.03,9.32,4.55,12.82,7.56
		c3.51,3.02,6.21,6.67,8.12,10.98c1.91,4.31,2.86,9.47,2.86,15.5c0,7.38-1.38,13.62-4.15,18.73c-2.77,5.11-6.43,9.22-10.98,12.36
		c-4.55,3.14-9.78,5.41-15.68,6.83c-5.9,1.41-11.99,2.12-18.26,2.12c-4.8,0-9.72-0.37-14.76-1.11c-5.04-0.74-9.96-1.81-14.76-3.23
		c-4.8-1.41-9.44-3.1-13.93-5.07c-4.49-1.97-8.64-4.24-12.45-6.83l13.28-26.38c0.49,0.62,2.09,1.78,4.8,3.51
		c2.7,1.72,6.06,3.44,10.06,5.17c4,1.72,8.46,3.26,13.38,4.61c4.92,1.35,9.9,2.03,14.94,2.03c10.7,0,16.05-3.26,16.05-9.78
		c0-2.46-0.8-4.49-2.4-6.09c-1.6-1.6-3.81-3.04-6.64-4.34c-2.83-1.29-6.18-2.49-10.05-3.6s-8.09-2.33-12.64-3.69
		c-6.03-1.84-11.25-3.84-15.68-6c-4.43-2.15-8.09-4.64-10.98-7.47c-2.89-2.83-5.04-6.09-6.46-9.78c-1.42-3.69-2.12-7.99-2.12-12.91
		c0-6.89,1.29-12.97,3.87-18.26c2.58-5.29,6.09-9.75,10.52-13.38c4.43-3.63,9.56-6.37,15.41-8.21c5.84-1.85,12.02-2.77,18.54-2.77
		c4.55,0,9.04,0.43,13.47,1.29c4.43,0.86,8.67,1.97,12.73,3.32c4.06,1.35,7.84,2.89,11.35,4.61c3.51,1.72,6.73,3.44,9.69,5.17
		L281.86,65.13z"/>
	<path fill="#F7F7F7" d="M308.61,109.22c0-6.64,1.17-13.01,3.51-19.1c2.33-6.09,5.72-11.44,10.15-16.05
		c4.43-4.61,9.87-8.27,16.33-10.98c6.46-2.7,13.81-4.06,22.05-4.06c11.19,0,20.6,2.37,28.23,7.1c7.62,4.74,13.34,10.92,17.16,18.54
		l-28.78,8.67c-3.81-6.15-9.41-9.22-16.79-9.22c-6.15,0-11.29,2.28-15.4,6.83c-4.12,4.55-6.18,10.64-6.18,18.26
		c0,3.81,0.55,7.29,1.66,10.42s2.64,5.81,4.61,8.03c1.97,2.21,4.27,3.94,6.92,5.17c2.64,1.23,5.44,1.84,8.39,1.84
		c3.69,0,7.07-0.89,10.15-2.68c3.07-1.78,5.35-4.09,6.83-6.92l28.78,8.86c-3.57,7.5-9.26,13.65-17.07,18.45
		c-7.81,4.8-17.31,7.19-28.5,7.19c-8.12,0-15.41-1.38-21.86-4.15s-11.93-6.46-16.42-11.07c-4.49-4.61-7.9-9.96-10.24-16.05
		C309.78,122.23,308.61,115.86,308.61,109.22z"/>
	<path fill="#F7F7F7" d="M446.98,159.58c-4.8,0-9.26-0.77-13.38-2.31c-4.12-1.54-7.66-3.69-10.61-6.46s-5.29-6.02-7.01-9.78
		c-1.72-3.75-2.58-7.84-2.58-12.27c0-4.8,1.02-9.16,3.04-13.1c2.03-3.93,4.89-7.32,8.58-10.15c3.69-2.83,8.05-5.04,13.1-6.64
		c5.04-1.6,10.64-2.4,16.79-2.4c4.06,0,7.99,0.34,11.81,1.01c3.81,0.68,7.13,1.69,9.96,3.04v-4.43c0-11.19-6.46-16.79-19.37-16.79
		c-5.29,0-10.33,0.89-15.13,2.67c-4.8,1.78-9.84,4.46-15.13,8.03l-8.67-18.45c6.39-4.18,13.04-7.32,19.92-9.41
		c6.89-2.09,14.21-3.14,21.96-3.14c14.64,0,25.95,3.44,33.95,10.33c7.99,6.89,11.99,16.97,11.99,30.26v24.91
		c0,2.95,0.46,5.01,1.38,6.18c0.92,1.17,2.55,1.88,4.89,2.12v24.91c-2.58,0.61-4.92,1.01-7.01,1.2c-2.09,0.18-4,0.28-5.72,0.28
		c-5.54,0-9.72-1.08-12.55-3.23c-2.83-2.15-4.61-5.19-5.35-9.13l-0.55-4.43c-4.31,5.53-9.44,9.78-15.41,12.73
		C459.93,158.11,453.62,159.58,446.98,159.58z M455.65,138.37c3.2,0,6.3-0.55,9.32-1.66c3.01-1.11,5.5-2.58,7.47-4.43
		c2.83-2.21,4.24-4.55,4.24-7.01v-9.22c-2.58-0.98-5.38-1.75-8.39-2.31c-3.02-0.55-5.81-0.83-8.39-0.83
		c-5.41,0-9.87,1.23-13.38,3.69c-3.5,2.46-5.26,5.66-5.26,9.59c0,3.57,1.35,6.49,4.06,8.76
		C448.03,137.23,451.47,138.37,455.65,138.37z"/>
	<path fill="#F7F7F7" d="M527.24,23.06h29.52v100.18c0,7.38,3.14,11.07,9.41,11.07c1.48,0,3.1-0.21,4.89-0.65
		c1.78-0.43,3.41-1.08,4.89-1.94l3.87,22.14c-3.69,1.72-7.93,3.08-12.73,4.06c-4.8,0.98-9.29,1.48-13.47,1.48
		c-8.49,0-15.01-2.21-19.56-6.64c-4.55-4.43-6.83-10.82-6.83-19.19V23.06z"/>
	<path fill="#F7F7F7" d="M616.9,159.58c-4.8,0-9.26-0.77-13.38-2.31c-4.12-1.54-7.66-3.69-10.61-6.46s-5.29-6.02-7.01-9.78
		c-1.72-3.75-2.58-7.84-2.58-12.27c0-4.8,1.01-9.16,3.04-13.1c2.03-3.93,4.89-7.32,8.58-10.15c3.69-2.83,8.05-5.04,13.1-6.64
		c5.04-1.6,10.64-2.4,16.79-2.4c4.06,0,7.99,0.34,11.81,1.01c3.81,0.68,7.13,1.69,9.96,3.04v-4.43c0-11.19-6.46-16.79-19.37-16.79
		c-5.29,0-10.33,0.89-15.13,2.67c-4.8,1.78-9.84,4.46-15.13,8.03l-8.67-18.45c6.39-4.18,13.04-7.32,19.92-9.41
		c6.89-2.09,14.21-3.14,21.96-3.14c14.64,0,25.95,3.44,33.95,10.33c7.99,6.89,11.99,16.97,11.99,30.26v24.91
		c0,2.95,0.46,5.01,1.38,6.18c0.92,1.17,2.55,1.88,4.89,2.12v24.91c-2.58,0.61-4.92,1.01-7.01,1.2c-2.09,0.18-4,0.28-5.72,0.28
		c-5.54,0-9.72-1.08-12.55-3.23c-2.83-2.15-4.61-5.19-5.35-9.13l-0.55-4.43c-4.31,5.53-9.44,9.78-15.41,12.73
		C629.84,158.11,623.54,159.58,616.9,159.58z M625.57,138.37c3.2,0,6.3-0.55,9.32-1.66c3.01-1.11,5.5-2.58,7.47-4.43
		c2.83-2.21,4.24-4.55,4.24-7.01v-9.22c-2.58-0.98-5.38-1.75-8.39-2.31c-3.02-0.55-5.81-0.83-8.39-0.83
		c-5.41,0-9.87,1.23-13.38,3.69c-3.5,2.46-5.26,5.66-5.26,9.59c0,3.57,1.35,6.49,4.06,8.76
		C617.94,137.23,621.39,138.37,625.57,138.37z"/>
	<path fill="#F7F7F7" d="M697.34,157.74v-30.07h24.17v30.07H697.34z"/>
	<path fill="#F7F7F7" d="M736.45,195.01c-4.92,0-9.59-0.77-14.02-2.31c-4.43-1.54-8.42-3.84-11.99-6.92l12.36-20.11
		c1.35,1.35,2.89,2.33,4.61,2.95c1.72,0.61,3.5,0.92,5.35,0.92c2.83,0,5.17-0.92,7.01-2.77c1.85-1.84,2.77-4.31,2.77-7.38V60.88
		h29.52v96.3c0,5.54-0.89,10.64-2.67,15.31c-1.78,4.67-4.28,8.67-7.47,11.99c-3.2,3.32-6.98,5.9-11.35,7.75
		C746.19,194.08,741.49,195.01,736.45,195.01z M742.54,49.81V23.06h29.52v26.75H742.54z"/>
	<path fill="#F7F7F7" d="M830.35,159.58c-8.24,0-16.36-1.32-24.35-3.97c-8-2.64-14.76-6.49-20.29-11.53l10.52-18.08
		c5.9,4.06,11.65,7.2,17.25,9.41c5.59,2.21,10.98,3.32,16.14,3.32c3.81,0,6.76-0.67,8.86-2.03c2.09-1.35,3.14-3.32,3.14-5.9
		c0-2.58-1.32-4.64-3.97-6.18c-2.65-1.54-7.29-3.17-13.93-4.89c-6.52-1.85-12.02-3.63-16.51-5.35c-4.49-1.72-8.15-3.63-10.98-5.72
		c-2.83-2.09-4.86-4.49-6.09-7.19c-1.23-2.7-1.84-5.9-1.84-9.59c0-4.92,0.98-9.41,2.95-13.47c1.97-4.06,4.67-7.5,8.12-10.33
		c3.44-2.83,7.53-5.04,12.27-6.64c4.73-1.6,9.87-2.4,15.41-2.4c7.25,0,14.05,0.99,20.39,2.95c6.33,1.97,12.45,5.53,18.36,10.7
		L854.34,90.4c-5.54-3.81-10.46-6.58-14.76-8.3c-4.31-1.72-8.49-2.58-12.54-2.58c-3.2,0-5.9,0.65-8.12,1.94s-3.32,3.35-3.32,6.18
		c0,2.71,1.2,4.74,3.6,6.09c2.4,1.35,6.86,2.83,13.38,4.43c6.89,1.84,12.7,3.69,17.43,5.53c4.73,1.84,8.58,3.91,11.53,6.18
		c2.95,2.28,5.1,4.89,6.46,7.84c1.35,2.95,2.03,6.46,2.03,10.52c0,9.59-3.57,17.22-10.7,22.88
		C852.18,156.76,842.53,159.58,830.35,159.58z"/>
</g>
<g>
	<polyline fill="#D6BA32" points="14.97,168.4 0,0.49 164.62,0.49 149.66,168.4 82.13,187.38 	"/>
	<polygon fill="#FFDA3E" points="82.49,174.03 136.88,159.07 149.66,15.25 82.49,15.25 	"/>
	
		<linearGradient id="SVGID_1_" gradientUnits="userSpaceOnUse" x1="-93.8822" y1="-200.478" x2="-92.8822" y2="-200.478" gradientTransform="matrix(83.3882 0 0 -88.9475 7869.3755 -17712.2246)">
		<stop  offset="0" style="stop-color:#646464"/>
		<stop  offset="1" style="stop-color:#000000"/>
	</linearGradient>
	<path fill="url(#SVGID_1_)" d="M82.34,100.89l0.01,31.8c19.2-0.64,36.96,0.22,36.63,5.99l1.62-28.52
		C120.6,110.17,121.05,102.22,82.34,100.89"/>
	
		<linearGradient id="SVGID_2_" gradientUnits="userSpaceOnUse" x1="-93.8822" y1="-200.478" x2="-92.8822" y2="-200.478" gradientTransform="matrix(83.3882 0 0 -88.9475 7869.3755 -17755.1602)">
		<stop  offset="0" style="stop-color:#646464"/>
		<stop  offset="1" style="stop-color:#000000"/>
	</linearGradient>
	<path fill="url(#SVGID_2_)" d="M82.34,53.61l0.01,36.25c20.41,1.09,39.2,3.75,38.83,10.23l1.82-32.13
		C122.99,67.96,123.5,58.97,82.34,53.61"/>
	
		<linearGradient id="SVGID_3_" gradientUnits="userSpaceOnUse" x1="-93.8822" y1="-200.478" x2="-92.8822" y2="-200.478" gradientTransform="matrix(83.3882 0 0 -88.9475 7869.77 -17764.4727)">
		<stop  offset="0" style="stop-color:#4B4B4B"/>
		<stop  offset="1" style="stop-color:#000000"/>
	</linearGradient>
	<path fill="url(#SVGID_3_)" d="M40.48,44.98l1.91,34.08c0,0,19.58,4.47,40.33,11.04V53.97C71.22,50.9,57.26,47.84,40.48,44.98"/>
	
		<linearGradient id="SVGID_4_" gradientUnits="userSpaceOnUse" x1="-93.8822" y1="-200.478" x2="-92.8822" y2="-200.478" gradientTransform="matrix(83.3882 0 0 -88.9475 7869.77 -17720.6855)">
		<stop  offset="0" style="stop-color:#4B4B4B"/>
		<stop  offset="1" style="stop-color:#000000"/>
	</linearGradient>
	<path fill="url(#SVGID_4_)" d="M42.98,89.75l1.69,30.24c0,0,18.5,5.5,38.04,12.91v-31.8C71.94,97.48,58.81,93.64,42.98,89.75"/>
	
		<linearGradient id="SVGID_5_" gradientUnits="userSpaceOnUse" x1="-93.8822" y1="-200.478" x2="-92.8822" y2="-200.478" gradientTransform="matrix(83.3882 0 0 88.9475 7869.3755 17881)">
		<stop  offset="0" style="stop-color:#A00000"/>
		<stop  offset="1" style="stop-color:#FF0000"/>
	</linearGradient>
	<path fill="url(#SVGID_5_)" d="M125.71,20.11c-0.45,7.93-21.31,14.89-43.37,20.21l0.01,37.55c40.78-12.25,41.3-21.3,41.3-21.3
		L125.71,20.11"/>
	
		<linearGradient id="SVGID_6_" gradientUnits="userSpaceOnUse" x1="-93.8822" y1="-200.478" x2="-92.8822" y2="-200.478" gradientTransform="matrix(83.3882 0 0 88.9475 7869.3755 17927.0664)">
		<stop  offset="0" style="stop-color:#A00000"/>
		<stop  offset="1" style="stop-color:#FF0000"/>
	</linearGradient>
	<path fill="url(#SVGID_6_)" d="M122.99,67.96c-0.4,6.97-20,14.82-40.65,21.31l0.01,32.88c38.37-14.05,38.82-22.05,38.82-22.05
		L122.99,67.96"/>
	
		<linearGradient id="SVGID_7_" gradientUnits="userSpaceOnUse" x1="-93.8822" y1="-200.478" x2="-92.8822" y2="-200.478" gradientTransform="matrix(83.3882 0 0 88.9475 7869.3755 17967.6875)">
		<stop  offset="0" style="stop-color:#A00000"/>
		<stop  offset="1" style="stop-color:#FF0000"/>
	</linearGradient>
	<path fill="url(#SVGID_7_)" d="M120.6,110.17c-0.35,6.18-18.84,14.66-38.25,22l0,29.02c36.22-15.37,36.63-22.5,36.63-22.5
		L120.6,110.17"/>
	
		<linearGradient id="SVGID_8_" gradientUnits="userSpaceOnUse" x1="-93.8822" y1="-200.478" x2="-92.8822" y2="-200.478" gradientTransform="matrix(83.3882 0 0 88.9475 7869.77 17891.748)">
		<stop  offset="0" style="stop-color:#780000"/>
		<stop  offset="1" style="stop-color:#C00000"/>
	</linearGradient>
	<path fill="url(#SVGID_8_)" d="M82.72,40.38c-21.91,3.39-42.24,4.6-42.24,4.6l1.91,34.08c15.94,0.16,29.27-0.34,40.33-1.26V40.38"
		/>
	
		<linearGradient id="SVGID_9_" gradientUnits="userSpaceOnUse" x1="-93.8822" y1="-200.478" x2="-92.8822" y2="-200.478" gradientTransform="matrix(83.3882 0 0 88.9475 7869.77 17937.6328)">
		<stop  offset="0" style="stop-color:#780000"/>
		<stop  offset="1" style="stop-color:#C00000"/>
	</linearGradient>
	<path fill="url(#SVGID_9_)" d="M82.72,89.18c-20.56,1.17-39.73,0.57-39.73,0.57l1.69,30.24c15.07,1.4,27.64,2.01,38.04,2.07V89.18"
		/>
	
		<linearGradient id="SVGID_10_" gradientUnits="userSpaceOnUse" x1="-93.8822" y1="-200.478" x2="-92.8822" y2="-200.478" gradientTransform="matrix(83.3882 0 0 88.9475 7869.77 17977.3594)">
		<stop  offset="0" style="stop-color:#780000"/>
		<stop  offset="1" style="stop-color:#C00000"/>
	</linearGradient>
	<path fill="url(#SVGID_10_)" d="M82.72,132.09c-19.36-0.56-37.51-2.59-37.51-2.59l1.51,27c14.3,2.38,26.18,3.86,35.99,4.68V132.09"
		/>
</g>
<g>
</g>
<g>
</g>
<g>
</g>
<g>
</g>
<g>
</g>
<g>
</g>
<g>
</g>
<g>
</g>
<g>
</g>
<g>
</g>
<g>
</g>
<g>
</g>
<g>
</g>
<g>
</g>
<g>
</g>
</svg>
