<?xml version="1.0" encoding="utf-8"?>
<!-- Generator: Adobe Illustrator 18.0.0, SVG Export Plug-In . SVG Version: 6.00 Build 0)  -->
<!DOCTYPE svg PUBLIC "-//W3C//DTD SVG 1.1//EN" "http://www.w3.org/Graphics/SVG/1.1/DTD/svg11.dtd">
<svg version="1.1" id="Layer_1" xmlns="http://www.w3.org/2000/svg" xmlns:xlink="http://www.w3.org/1999/xlink" x="0px" y="0px"
	 viewBox="0 0 809.8 384.1" enable-background="new 0 0 809.8 384.1" xml:space="preserve">
<g>
	<circle fill="#00D8FF" cx="669.4" cy="124.7" r="25.1"/>
	<path fill="none" stroke="#00D8FF" stroke-width="12" stroke-miterlimit="10" d="M669.4,73.7c33.7,0,65,4.8,88.6,13
		c28.4,9.8,45.9,24.6,45.9,38c0,14-18.5,29.8-49,39.9c-23.1,7.6-53.4,11.6-85.4,11.6c-32.8,0-63.8-3.7-87.1-11.7
		c-29.5-10.1-47.3-26.1-47.3-39.8c0-13.3,16.7-28,44.7-37.8C603.3,78.7,635.4,73.7,669.4,73.7z"/>
	<path fill="none" stroke="#00D8FF" stroke-width="12" stroke-miterlimit="10" d="M625,99.4c16.8-29.2,36.6-53.9,55.5-70.2
		c22.7-19.7,44.3-27.5,55.9-20.8c12.1,7,16.5,30.9,10,62.4c-4.9,23.8-16.6,52.1-32.6,79.8c-16.4,28.4-35.1,53.4-53.7,69.6
		c-23.5,20.5-46.2,28-58.1,21.1c-11.5-6.7-16-28.5-10.4-57.6C596.2,159.1,608,128.8,625,99.4z"/>
	<path fill="none" stroke="#00D8FF" stroke-width="12" stroke-miterlimit="10" d="M625,150.6c-16.9-29.1-28.4-58.6-33.2-83.1
		c-5.8-29.5-1.7-52.1,9.9-58.8c12.1-7,35,1.1,59.1,22.5c18.2,16.1,36.8,40.4,52.9,68.1c16.4,28.4,28.7,57.1,33.5,81.3
		c6.1,30.6,1.2,54-10.7,60.9c-11.5,6.7-32.6-0.4-55.1-19.7C662.4,205.3,642.1,180.1,625,150.6z"/>
</g>
<g>
	<title>HTML5 Logo Badge</title>
	<path fill="#E34F26" d="M21.1,237.1L0,0h232.5l-21.1,237.1L116,263.9"/>
	<path fill="#EF652A" d="M116.5,243.3l76.8-21.1l18-203.1h-94.9"/>
	<path fill="#EBEBEB" d="M116.5,107.2H77.8l-2.6-29.9h41.2V48.5H116H43.3l0.5,7.7l7.2,80.4h65.5V107.2z M116.5,183H116l-32.5-8.8
		L81.5,151H66H52.6l3.6,45.9l59.8,16.5h0.5V183z"/>
	<path fill="#FFFFFF" d="M116,107.2v29.4h36.1l-3.6,37.6L116,183v30.4l59.8-16.5l0.5-5.2L183,115l1-7.7h-8.2H116z M116,48.5v18v10.8
		l0,0h70.6l0,0l0,0l0.5-6.2l1.5-15l0.5-7.7H116z"/>
</g>
<g>
	<title>Slice 1</title>
	<description>Created with Sketch (http://www.bohemiancoding.com/sketch)</description>
	<g id="Layer_1_2_">
		<path id="Shape_14_" fill="#1572B6" d="M293,237.6l-21.2-237H504l-21.2,236.9l-95.1,26.4L293,237.6z"/>
		<path id="Shape_13_" fill="#33A9DC" d="M388,243.8l76.8-21.3L482.9,20H388V243.8z"/>
		<g id="Group_1_" transform="translate(55.000000, 142.000000)">
			<path id="Shape_12_" fill="#FFFFFF" d="M333-36.1h38.5l2.7-29.7H333V-95h0.1h72.7l-0.7,7.8L398-7.1h-65L333-36.1L333-36.1z"/>
			<path id="Shape_11_" fill="#EBEBEB" d="M333.1,39.4H333l-32.4-8.7l-2.1-23.2h-15.8h-13.4l4.1,45.7l59.6,16.5h0.2L333.1,39.4
				L333.1,39.4z"/>
			<path id="Shape_10_" fill="#FFFFFF" d="M368.9-8.3l-3.5,38.9L333,39.4v30.2L392.6,53l0.5-4.9l5.1-56.5L368.9-8.3L368.9-8.3z"/>
			<path id="Shape_9_" fill="#EBEBEB" d="M333-95v18V-66v0.1h-70.1h-0.1l-0.5-6.6L261-87.2l-0.7-7.8L333-95L333-95z"/>
			<path id="Shape_8_" fill="#EBEBEB" d="M333-36.1v18v10.9v0.1h-31.8H301l-0.5-6.6l-1.3-14.8l-0.7-7.8L333-36.1L333-36.1z"/>
		</g>
	</g>
</g>
<g>
	<title>HTML5 Logo Badge</title>
	<g>
		<path fill="#D6BA32" d="M157.5,357.3l-21.1-236.9h232.3l-21.1,236.9L252.3,384"/>
		<path fill="#FFDA3E" d="M252.8,365.2l76.7-21.1l18.1-202.9h-94.8V365.2z"/>
		<path fill="#FFFFFF" d="M344.2,180.9"/>
		<polygon fill="#EBEBEB" points="220.7,171.5 220.7,293.1 175.7,280.6 175.7,307.7 243.1,326.5 243.1,171.5 		"/>
		<polygon fill="#FFFFFF" points="333.5,198.6 335.8,171.5 261.9,171.5 261.9,272.2 308.1,263.9 306.9,287.3 261.9,299.3 
			261.9,326.4 324.7,309.9 330.5,234.5 284.4,240.2 284.4,198.6 		"/>
	</g>
</g>
<g>
	<g>
		<polygon fill="#B4B4B4" points="548.6,120 424.4,163.7 444,326.5 548.7,384.1 654,325.7 673.7,162.9 		"/>
		<polygon fill="#A51E22" points="661.3,172.3 548.3,133.8 548.3,370.3 643,317.9 		"/>
		<polygon fill="#DC2226" points="438.3,173 455.1,318.6 548.3,370.3 548.3,133.8 		"/>
		<path fill="#F3F3F3" d="M579.4,259.7l-31.1,14.5h-32.8l-15.4,38.5l-28.7,0.5l76.8-170.9L579.4,259.7z M576.4,252.4l-27.9-55.2
			l-22.9,54.2h22.7L576.4,252.4z"/>
		<polygon fill="#B4B4B4" points="548.3,142.4 548.5,197.2 574.5,251.5 548.4,251.5 548.3,274.2 584.4,274.2 601.3,313.3 
			628.7,313.8 		"/>
	</g>
</g>
</svg>
