<?xml version="1.0" encoding="UTF-8" standalone="no"?>
<svg width="512px" height="512px" viewBox="0 0 512 512" version="1.1" xmlns="http://www.w3.org/2000/svg" xmlns:xlink="http://www.w3.org/1999/xlink" xmlns:sketch="http://www.bohemiancoding.com/sketch/ns">
    <title>logo-512</title>
    <description>Created with Sketch (http://www.bohemiancoding.com/sketch)</description>
    <defs></defs>
    <g id="Page-1" stroke="none" stroke-width="1" fill="none" fill-rule="evenodd" sketch:type="MSPage">
        <g id="HTML5_Badge-copy-+-Rectangle-1-+-Rectangle-1-copy-2" sketch:type="MSLayerGroup" transform="translate(30.000000, 0.000000)">
            <g id="HTML5_Badge-copy" sketch:type="MSShapeGroup">
                <path d="M41,460 L0,0 L451,0 L410,460 L225,512" id="Shape" fill="#DC322F"></path>
                <path d="M226,472 L375,431 L410,37 L226,37" id="Shape" fill="#E84E4B"></path>
            </g>
            <g id="Rectangle-1-+-Rectangle-1-copy-2" transform="translate(121.000000, 84.000000)" sketch:type="MSShapeGroup">
                <path d="M101,206 L210,180.882767 L210,103 L101,128.117233 L101,206 Z M101,309 L210,283.882767 L210,206 L101,231.117233 L101,309 Z M101,103 L210,77.882767 L210,0 L101,25.117233 L101,103 Z" id="Rectangle-1" fill="#FFFFFF"></path>
                <path d="M0,125 L105,101.578922 L105,24 L0,47.4210776 L0,125 Z M0,331 L105,307.578922 L105,230 L0,253.421078 L0,331 Z M0,228 L105,204.578922 L105,127 L0,150.421078 L0,228 Z" id="Path" fill="#EBEBEB"></path>
            </g>
        </g>
    </g>
</svg>