<?xml version="1.0" encoding="UTF-8" standalone="no"?>
<svg width="451px" height="601px" viewBox="0 0 451 601" version="1.1" xmlns="http://www.w3.org/2000/svg" xmlns:xlink="http://www.w3.org/1999/xlink" xmlns:sketch="http://www.bohemiancoding.com/sketch/ns">
    <title>logo-black</title>
    <description>Created with Sketch (http://www.bohemiancoding.com/sketch)</description>
    <defs></defs>
    <g id="Page-1" stroke="none" stroke-width="1" fill="none" fill-rule="evenodd" sketch:type="MSPage">
        <g id="HTML5_Badge-copy-2-+-Rectangle-1-+-Rectangle-1-copy-3-+-SCALA.JS-copy" sketch:type="MSLayerGroup" transform="translate(0.000000, 1.000000)">
            <g id="HTML5_Badge-copy-2-+-Rectangle-1-+-Rectangle-1-copy-3" transform="translate(0.000000, 88.000000)" sketch:type="MSShapeGroup">
                <g id="HTML5_Badge-copy-2">
                    <path d="M41,460 L0,0 L451,0 L410,460 L225,512" id="Shape" fill="#000000"></path>
                    <path d="M226,472 L375,431 L410,37 L226,37" id="Shape" fill="#333333"></path>
                </g>
                <g id="Rectangle-1-+-Rectangle-1-copy-3" transform="translate(121.000000, 84.000000)">
                    <path d="M101,206 L210,180.882767 L210,103 L101,128.117233 L101,206 Z M101,309 L210,283.882767 L210,206 L101,231.117233 L101,309 Z M101,103 L210,77.882767 L210,0 L101,25.117233 L101,103 Z" id="Rectangle-1" fill="#FFFFFF"></path>
                    <path d="M0,125 L105,101.578922 L105,24 L0,47.4210776 L0,125 Z M0,331 L105,307.578922 L105,230 L0,253.421078 L0,331 Z M0,228 L105,204.578922 L105,127 L0,150.421078 L0,228 Z" id="Path" fill="#EBEBEB"></path>
                </g>
            </g>
            <path d="M9.7734375,39.0546875 L26.609375,38 C26.9739602,40.7343887 27.7161402,42.8177012 28.8359375,44.25 C30.6588633,46.5677199 33.2630039,47.7265625 36.6484375,47.7265625 C39.1744918,47.7265625 41.1210869,47.1341205 42.4882812,45.9492188 C43.8554756,44.764317 44.5390625,43.3906328 44.5390625,41.828125 C44.5390625,40.3437426 43.8880273,39.0156309 42.5859375,37.84375 C41.2838477,36.6718691 38.2630445,35.5651094 33.5234375,34.5234375 C25.762982,32.7786371 20.2291832,30.460952 16.921875,27.5703125 C13.588525,24.679673 11.921875,20.9948141 11.921875,16.515625 C11.921875,13.572902 12.7747311,10.7929818 14.4804688,8.17578125 C16.1862064,5.55858066 18.751285,3.50130957 22.1757812,2.00390625 C25.6002775,0.50650293 30.294241,-0.2421875 36.2578125,-0.2421875 C43.5755574,-0.2421875 49.1549287,1.11847598 52.9960938,3.83984375 C56.8372588,6.56121152 59.1223922,10.8905953 59.8515625,16.828125 L43.171875,17.8046875 C42.7291645,15.2265496 41.7981842,13.3515684 40.3789062,12.1796875 C38.9596283,11.0078066 37.0000125,10.421875 34.5,10.421875 C32.442698,10.421875 30.8932344,10.8580686 29.8515625,11.7304688 C28.8098906,12.6028689 28.2890625,13.6640562 28.2890625,14.9140625 C28.2890625,15.8255254 28.7187457,16.6458297 29.578125,17.375 C30.4114625,18.1302121 32.3906094,18.8333301 35.515625,19.484375 C43.2500387,21.15105 48.7903479,22.8372311 52.1367188,24.5429688 C55.4830896,26.2487064 57.9179611,28.3645707 59.4414062,30.890625 C60.9648514,33.4166793 61.7265625,36.2421719 61.7265625,39.3671875 C61.7265625,43.0390809 60.7109477,46.4244637 58.6796875,49.5234375 C56.6484273,52.6224113 53.8099141,54.9726482 50.1640625,56.5742188 C46.5182109,58.1757893 41.9219027,58.9765625 36.375,58.9765625 C26.635368,58.9765625 19.8906438,57.1015812 16.140625,53.3515625 C12.3906063,49.6015438 10.2682316,44.8359664 9.7734375,39.0546875 Z M108.757812,34.6015625 L124.265625,39.2890625 C123.223953,43.6380426 121.583345,47.2708187 119.34375,50.1875 C117.104155,53.1041813 114.324235,55.3046801 111.003906,56.7890625 C107.683577,58.2734449 103.458359,59.015625 98.328125,59.015625 C92.1041355,59.015625 87.019551,58.1106861 83.0742188,56.3007812 C79.1288865,54.4908764 75.7239727,51.3073145 72.859375,46.75 C69.9947773,42.1926855 68.5625,36.3594105 68.5625,29.25 C68.5625,19.7707859 71.0820061,12.4857025 76.1210938,7.39453125 C81.1601814,2.30335996 88.2890164,-0.2421875 97.5078125,-0.2421875 C104.72139,-0.2421875 110.391906,1.21613125 114.519531,4.1328125 C118.647156,7.04949375 121.713532,11.5286156 123.71875,17.5703125 L108.09375,21.046875 C107.546872,19.3020746 106.973961,18.0260457 106.375,17.21875 C105.385412,15.8645766 104.174486,14.8229203 102.742188,14.09375 C101.309889,13.3645797 99.7083422,13 97.9375,13 C93.9270633,13 90.8541773,14.6145672 88.71875,17.84375 C87.1041586,20.2395953 86.296875,24.0025785 86.296875,29.1328125 C86.296875,35.4870109 87.260407,39.8424361 89.1875,42.1992188 C91.114593,44.5560014 93.8228992,45.734375 97.3125,45.734375 C100.697934,45.734375 103.256502,44.7838637 104.988281,42.8828125 C106.720061,40.9817613 107.976559,38.2213723 108.757812,34.6015625 Z M168.09375,48.546875 L147.9375,48.546875 L145.164062,58 L127.078125,58 L148.601562,0.734375 L167.898438,0.734375 L189.421875,58 L170.90625,58 L168.09375,48.546875 Z M164.382812,36.1640625 L158.054688,15.578125 L151.765625,36.1640625 L164.382812,36.1640625 Z M195.085938,0.734375 L212.78125,0.734375 L212.78125,43.8984375 L240.398438,43.8984375 L240.398438,58 L195.085938,58 L195.085938,0.734375 Z M283.679688,48.546875 L263.523438,48.546875 L260.75,58 L242.664062,58 L264.1875,0.734375 L283.484375,0.734375 L305.007812,58 L286.492188,58 L283.679688,48.546875 Z M279.96875,36.1640625 L273.640625,15.578125 L267.351562,36.1640625 L279.96875,36.1640625 Z M309.65625,42.0625 L326.648438,42.0625 L326.648438,58 L309.65625,58 L309.65625,42.0625 Z M361.140625,0.734375 L378.875,0.734375 L378.875,31.8671875 C378.875,38.4036785 378.295579,43.3775871 377.136719,46.7890625 C375.977859,50.2005379 373.647153,53.091134 370.144531,55.4609375 C366.64191,57.830741 362.156277,59.015625 356.6875,59.015625 C350.906221,59.015625 346.427099,58.2343828 343.25,56.671875 C340.072901,55.1093672 337.618498,52.8242338 335.886719,49.8164062 C334.154939,46.8085787 333.132814,43.091168 332.820312,38.6640625 L349.734375,36.359375 C349.760417,38.8854293 349.981769,40.7604105 350.398438,41.984375 C350.815106,43.2083395 351.518224,44.1979129 352.507812,44.953125 C353.184899,45.4479191 354.148431,45.6953125 355.398438,45.6953125 C357.377614,45.6953125 358.829422,44.9596428 359.753906,43.4882812 C360.67839,42.0169197 361.140625,39.5364758 361.140625,36.046875 L361.140625,0.734375 Z M387.585938,39.0546875 L404.421875,38 C404.78646,40.7343887 405.52864,42.8177012 406.648438,44.25 C408.471363,46.5677199 411.075504,47.7265625 414.460938,47.7265625 C416.986992,47.7265625 418.933587,47.1341205 420.300781,45.9492188 C421.667976,44.764317 422.351562,43.3906328 422.351562,41.828125 C422.351562,40.3437426 421.700527,39.0156309 420.398438,37.84375 C419.096348,36.6718691 416.075545,35.5651094 411.335938,34.5234375 C403.575482,32.7786371 398.041683,30.460952 394.734375,27.5703125 C391.401025,24.679673 389.734375,20.9948141 389.734375,16.515625 C389.734375,13.572902 390.587231,10.7929818 392.292969,8.17578125 C393.998706,5.55858066 396.563785,3.50130957 399.988281,2.00390625 C403.412778,0.50650293 408.106741,-0.2421875 414.070312,-0.2421875 C421.388057,-0.2421875 426.967429,1.11847598 430.808594,3.83984375 C434.649759,6.56121152 436.934892,10.8905953 437.664062,16.828125 L420.984375,17.8046875 C420.541664,15.2265496 419.610684,13.3515684 418.191406,12.1796875 C416.772128,11.0078066 414.812513,10.421875 412.3125,10.421875 C410.255198,10.421875 408.705734,10.8580686 407.664062,11.7304688 C406.622391,12.6028689 406.101562,13.6640562 406.101562,14.9140625 C406.101562,15.8255254 406.531246,16.6458297 407.390625,17.375 C408.223962,18.1302121 410.203109,18.8333301 413.328125,19.484375 C421.062539,21.15105 426.602848,22.8372311 429.949219,24.5429688 C433.29559,26.2487064 435.730461,28.3645707 437.253906,30.890625 C438.777351,33.4166793 439.539062,36.2421719 439.539062,39.3671875 C439.539062,43.0390809 438.523448,46.4244637 436.492188,49.5234375 C434.460927,52.6224113 431.622414,54.9726482 427.976562,56.5742188 C424.330711,58.1757893 419.734403,58.9765625 414.1875,58.9765625 C404.447868,58.9765625 397.703144,57.1015812 393.953125,53.3515625 C390.203106,49.6015438 388.080732,44.8359664 387.585938,39.0546875 Z" id="SCALA.JS-copy" fill="#000000" sketch:type="MSShapeGroup"></path>
        </g>
    </g>
</svg>