<?xml version="1.0" encoding="UTF-8" standalone="no"?>
<svg width="451px" height="601px" viewBox="0 0 451 601" version="1.1" xmlns="http://www.w3.org/2000/svg" xmlns:xlink="http://www.w3.org/1999/xlink" xmlns:sketch="http://www.bohemiancoding.com/sketch/ns">
    <title>logo</title>
    <description>Created with Sketch (http://www.bohemiancoding.com/sketch)</description>
    <defs></defs>
    <g id="Page-1" stroke="none" stroke-width="1" fill="none" fill-rule="evenodd" sketch:type="MSPage">
        <g id="HTML5_Badge-copy-+-Rectangle-1-+-Rectangle-1-copy-2" sketch:type="MSLayerGroup" transform="translate(0.000000, 89.000000)">
            <g id="HTML5_Badge-copy" sketch:type="MSShapeGroup">
                <path d="M41,460 L0,0 L451,0 L410,460 L225,512" id="Shape" fill="#DC322F"></path>
                <path d="M226,472 L375,431 L410,37 L226,37" id="Shape" fill="#E84E4B"></path>
            </g>
            <g id="Rectangle-1-+-Rectangle-1-copy-2" transform="translate(121.000000, 84.000000)" sketch:type="MSShapeGroup">
                <path d="M101,206 L210,180.882767 L210,103 L101,128.117233 L101,206 Z M101,309 L210,283.882767 L210,206 L101,231.117233 L101,309 Z M101,103 L210,77.882767 L210,0 L101,25.117233 L101,103 Z" id="Rectangle-1" fill="#FFFFFF"></path>
                <path d="M0,125 L105,101.578922 L105,24 L0,47.4210776 L0,125 Z M0,331 L105,307.578922 L105,230 L0,253.421078 L0,331 Z M0,228 L105,204.578922 L105,127 L0,150.421078 L0,228 Z" id="Path" fill="#EBEBEB"></path>
            </g>
        </g>
        <path d="M10.2734375,40.0546875 L27.109375,39 C27.4739602,41.7343887 28.2161402,43.8177012 29.3359375,45.25 C31.1588633,47.5677199 33.7630039,48.7265625 37.1484375,48.7265625 C39.6744918,48.7265625 41.6210869,48.1341205 42.9882812,46.9492188 C44.3554756,45.764317 45.0390625,44.3906328 45.0390625,42.828125 C45.0390625,41.3437426 44.3880273,40.0156309 43.0859375,38.84375 C41.7838477,37.6718691 38.7630445,36.5651094 34.0234375,35.5234375 C26.262982,33.7786371 20.7291832,31.460952 17.421875,28.5703125 C14.088525,25.679673 12.421875,21.9948141 12.421875,17.515625 C12.421875,14.572902 13.2747311,11.7929818 14.9804688,9.17578125 C16.6862064,6.55858066 19.251285,4.50130957 22.6757812,3.00390625 C26.1002775,1.50650293 30.794241,0.7578125 36.7578125,0.7578125 C44.0755574,0.7578125 49.6549287,2.11847598 53.4960938,4.83984375 C57.3372588,7.56121152 59.6223922,11.8905953 60.3515625,17.828125 L43.671875,18.8046875 C43.2291645,16.2265496 42.2981842,14.3515684 40.8789062,13.1796875 C39.4596283,12.0078066 37.5000125,11.421875 35,11.421875 C32.942698,11.421875 31.3932344,11.8580686 30.3515625,12.7304688 C29.3098906,13.6028689 28.7890625,14.6640562 28.7890625,15.9140625 C28.7890625,16.8255254 29.2187457,17.6458297 30.078125,18.375 C30.9114625,19.1302121 32.8906094,19.8333301 36.015625,20.484375 C43.7500387,22.15105 49.2903479,23.8372311 52.6367188,25.5429688 C55.9830896,27.2487064 58.4179611,29.3645707 59.9414062,31.890625 C61.4648514,34.4166793 62.2265625,37.2421719 62.2265625,40.3671875 C62.2265625,44.0390809 61.2109477,47.4244637 59.1796875,50.5234375 C57.1484273,53.6224113 54.3099141,55.9726482 50.6640625,57.5742188 C47.0182109,59.1757893 42.4219027,59.9765625 36.875,59.9765625 C27.135368,59.9765625 20.3906437,58.1015812 16.640625,54.3515625 C12.8906063,50.6015438 10.7682316,45.8359664 10.2734375,40.0546875 Z M109.257812,35.6015625 L124.765625,40.2890625 C123.723953,44.6380426 122.083345,48.2708187 119.84375,51.1875 C117.604155,54.1041813 114.824235,56.3046801 111.503906,57.7890625 C108.183577,59.2734449 103.958359,60.015625 98.828125,60.015625 C92.6041355,60.015625 87.519551,59.1106861 83.5742188,57.3007812 C79.6288865,55.4908764 76.2239727,52.3073145 73.359375,47.75 C70.4947773,43.1926855 69.0625,37.3594105 69.0625,30.25 C69.0625,20.7707859 71.5820061,13.4857025 76.6210938,8.39453125 C81.6601814,3.30335996 88.7890164,0.7578125 98.0078125,0.7578125 C105.22139,0.7578125 110.891906,2.21613125 115.019531,5.1328125 C119.147156,8.04949375 122.213532,12.5286156 124.21875,18.5703125 L108.59375,22.046875 C108.046872,20.3020746 107.473961,19.0260457 106.875,18.21875 C105.885412,16.8645766 104.674486,15.8229203 103.242188,15.09375 C101.809889,14.3645797 100.208342,14 98.4375,14 C94.4270633,14 91.3541773,15.6145672 89.21875,18.84375 C87.6041586,21.2395953 86.796875,25.0025785 86.796875,30.1328125 C86.796875,36.4870109 87.760407,40.8424361 89.6875,43.1992188 C91.614593,45.5560014 94.3228992,46.734375 97.8125,46.734375 C101.197934,46.734375 103.756502,45.7838637 105.488281,43.8828125 C107.220061,41.9817613 108.476559,39.2213723 109.257812,35.6015625 Z M168.59375,49.546875 L148.4375,49.546875 L145.664062,59 L127.578125,59 L149.101562,1.734375 L168.398438,1.734375 L189.921875,59 L171.40625,59 L168.59375,49.546875 Z M164.882812,37.1640625 L158.554688,16.578125 L152.265625,37.1640625 L164.882812,37.1640625 Z M195.585938,1.734375 L213.28125,1.734375 L213.28125,44.8984375 L240.898438,44.8984375 L240.898438,59 L195.585938,59 L195.585938,1.734375 Z M284.179688,49.546875 L264.023438,49.546875 L261.25,59 L243.164062,59 L264.6875,1.734375 L283.984375,1.734375 L305.507812,59 L286.992188,59 L284.179688,49.546875 Z M280.46875,37.1640625 L274.140625,16.578125 L267.851562,37.1640625 L280.46875,37.1640625 Z M310.15625,43.0625 L327.148438,43.0625 L327.148438,59 L310.15625,59 L310.15625,43.0625 Z M361.640625,1.734375 L379.375,1.734375 L379.375,32.8671875 C379.375,39.4036785 378.795579,44.3775871 377.636719,47.7890625 C376.477859,51.2005379 374.147153,54.091134 370.644531,56.4609375 C367.14191,58.830741 362.656277,60.015625 357.1875,60.015625 C351.406221,60.015625 346.927099,59.2343828 343.75,57.671875 C340.572901,56.1093672 338.118498,53.8242338 336.386719,50.8164062 C334.654939,47.8085787 333.632814,44.091168 333.320312,39.6640625 L350.234375,37.359375 C350.260417,39.8854293 350.481769,41.7604105 350.898438,42.984375 C351.315106,44.2083395 352.018224,45.1979129 353.007812,45.953125 C353.684899,46.4479191 354.648431,46.6953125 355.898438,46.6953125 C357.877614,46.6953125 359.329422,45.9596428 360.253906,44.4882812 C361.17839,43.0169197 361.640625,40.5364758 361.640625,37.046875 L361.640625,1.734375 Z M388.085938,40.0546875 L404.921875,39 C405.28646,41.7343887 406.02864,43.8177012 407.148438,45.25 C408.971363,47.5677199 411.575504,48.7265625 414.960938,48.7265625 C417.486992,48.7265625 419.433587,48.1341205 420.800781,46.9492188 C422.167976,45.764317 422.851562,44.3906328 422.851562,42.828125 C422.851562,41.3437426 422.200527,40.0156309 420.898438,38.84375 C419.596348,37.6718691 416.575545,36.5651094 411.835938,35.5234375 C404.075482,33.7786371 398.541683,31.460952 395.234375,28.5703125 C391.901025,25.679673 390.234375,21.9948141 390.234375,17.515625 C390.234375,14.572902 391.087231,11.7929818 392.792969,9.17578125 C394.498706,6.55858066 397.063785,4.50130957 400.488281,3.00390625 C403.912778,1.50650293 408.606741,0.7578125 414.570312,0.7578125 C421.888057,0.7578125 427.467429,2.11847598 431.308594,4.83984375 C435.149759,7.56121152 437.434892,11.8905953 438.164062,17.828125 L421.484375,18.8046875 C421.041664,16.2265496 420.110684,14.3515684 418.691406,13.1796875 C417.272128,12.0078066 415.312513,11.421875 412.8125,11.421875 C410.755198,11.421875 409.205734,11.8580686 408.164062,12.7304688 C407.122391,13.6028689 406.601562,14.6640562 406.601562,15.9140625 C406.601562,16.8255254 407.031246,17.6458297 407.890625,18.375 C408.723962,19.1302121 410.703109,19.8333301 413.828125,20.484375 C421.562539,22.15105 427.102848,23.8372311 430.449219,25.5429688 C433.79559,27.2487064 436.230461,29.3645707 437.753906,31.890625 C439.277351,34.4166793 440.039062,37.2421719 440.039062,40.3671875 C440.039062,44.0390809 439.023448,47.4244637 436.992188,50.5234375 C434.960927,53.6224113 432.122414,55.9726482 428.476562,57.5742188 C424.830711,59.1757893 420.234403,59.9765625 414.6875,59.9765625 C404.947868,59.9765625 398.203144,58.1015812 394.453125,54.3515625 C390.703106,50.6015438 388.580732,45.8359664 388.085938,40.0546875 Z" id="SCALA.JS" fill="#000000" sketch:type="MSShapeGroup"></path>
    </g>
</svg>