<?xml version="1.0" encoding="UTF-8"?><svg xmlns="http://www.w3.org/2000/svg" xmlns:xlink="http://www.w3.org/1999/xlink" fill-opacity="1" color-rendering="auto" color-interpolation="auto" text-rendering="auto" stroke="black" stroke-linecap="square" width="593" stroke-miterlimit="10" shape-rendering="auto" stroke-opacity="1" fill="black" stroke-dasharray="none" font-weight="normal" stroke-width="1" height="326" font-family="'Dialog'" font-style="normal" stroke-linejoin="miter" font-size="12px" stroke-dashoffset="0" image-rendering="auto">
  <!--Generated by ySVG 2.6-->
  <defs id="genericDefs"/>
  <g>
    <defs id="defs1">
      <clipPath clipPathUnits="userSpaceOnUse" id="clipPath1">
        <path d="M0 0 L593 0 L593 326 L0 326 L0 0 Z"/>
      </clipPath>
      <clipPath clipPathUnits="userSpaceOnUse" id="clipPath2">
        <path d="M79 156 L672 156 L672 482 L79 482 L79 156 Z"/>
      </clipPath>
      <clipPath clipPathUnits="userSpaceOnUse" id="clipPath3">
        <path d="M-81.3564 577.9688 L-81.3564 -15.0312 L244.6436 -15.0312 L244.6436 577.9688 L-81.3564 577.9688 Z"/>
      </clipPath>
    </defs>
    <g fill="aqua" text-rendering="geometricPrecision" shape-rendering="geometricPrecision" transform="matrix(1,0,0,1,-79,-156)" stroke="aqua">
      <rect x="180" width="43" height="42" y="171" clip-path="url(#clipPath2)" stroke="none"/>
    </g>
    <g text-rendering="geometricPrecision" stroke-miterlimit="1.45" shape-rendering="geometricPrecision" transform="matrix(1,0,0,1,-79,-156)" stroke-linecap="butt">
      <rect fill="none" x="180" width="43" height="42" y="171" clip-path="url(#clipPath2)"/>
      <text x="197.6826" xml:space="preserve" y="196.1543" clip-path="url(#clipPath2)" font-family="sans-serif" stroke="none">1</text>
      <text x="137.8594" xml:space="preserve" y="196.1543" clip-path="url(#clipPath2)" font-family="sans-serif" stroke="none">intVar</text>
    </g>
    <g fill="aqua" text-rendering="geometricPrecision" shape-rendering="geometricPrecision" transform="matrix(1,0,0,1,-79,-156)" stroke="aqua">
      <rect x="361" width="43" height="42" y="171" clip-path="url(#clipPath2)" stroke="none"/>
    </g>
    <g text-rendering="geometricPrecision" stroke-miterlimit="1.45" shape-rendering="geometricPrecision" transform="matrix(1,0,0,1,-79,-156)" stroke-linecap="butt">
      <rect fill="none" x="361" width="43" height="42" y="171" clip-path="url(#clipPath2)"/>
      <text x="378.6826" xml:space="preserve" y="196.1543" clip-path="url(#clipPath2)" font-family="sans-serif" stroke="none">3</text>
    </g>
    <g fill="aqua" text-rendering="geometricPrecision" shape-rendering="geometricPrecision" transform="matrix(1,0,0,1,-79,-156)" stroke="aqua">
      <rect x="542" width="43" height="42" y="171" clip-path="url(#clipPath2)" stroke="none"/>
    </g>
    <g text-rendering="geometricPrecision" stroke-miterlimit="1.45" shape-rendering="geometricPrecision" transform="matrix(1,0,0,1,-79,-156)" stroke-linecap="butt">
      <rect fill="none" x="542" width="43" height="42" y="171" clip-path="url(#clipPath2)"/>
      <text x="559.6826" xml:space="preserve" y="196.1543" clip-path="url(#clipPath2)" font-family="sans-serif" stroke="none">9</text>
    </g>
    <g fill="aqua" text-rendering="geometricPrecision" shape-rendering="geometricPrecision" transform="matrix(1,0,0,1,-79,-156)" stroke="aqua">
      <rect x="180" width="43" height="42" y="268" clip-path="url(#clipPath2)" stroke="none"/>
    </g>
    <g text-rendering="geometricPrecision" stroke-miterlimit="1.45" shape-rendering="geometricPrecision" transform="matrix(1,0,0,1,-79,-156)" stroke-linecap="butt">
      <rect fill="none" x="180" width="43" height="42" y="268" clip-path="url(#clipPath2)"/>
      <text x="197.6826" xml:space="preserve" y="293.1543" clip-path="url(#clipPath2)" font-family="sans-serif" stroke="none">1</text>
      <text x="121.4941" xml:space="preserve" y="293.1543" clip-path="url(#clipPath2)" font-family="sans-serif" stroke="none">intSignal</text>
    </g>
    <g fill="aqua" text-rendering="geometricPrecision" shape-rendering="geometricPrecision" transform="matrix(1,0,0,1,-79,-156)" stroke="aqua">
      <rect x="361" width="43" height="42" y="268" clip-path="url(#clipPath2)" stroke="none"/>
    </g>
    <g text-rendering="geometricPrecision" stroke-miterlimit="1.45" shape-rendering="geometricPrecision" transform="matrix(1,0,0,1,-79,-156)" stroke-linecap="butt">
      <rect fill="none" x="361" width="43" height="42" y="268" clip-path="url(#clipPath2)"/>
      <text x="378.6826" xml:space="preserve" y="293.1543" clip-path="url(#clipPath2)" font-family="sans-serif" stroke="none">3</text>
    </g>
    <g fill="aqua" text-rendering="geometricPrecision" shape-rendering="geometricPrecision" transform="matrix(1,0,0,1,-79,-156)" stroke="aqua">
      <rect x="542" width="43" height="42" y="268" clip-path="url(#clipPath2)" stroke="none"/>
    </g>
    <g text-rendering="geometricPrecision" stroke-miterlimit="1.45" shape-rendering="geometricPrecision" transform="matrix(1,0,0,1,-79,-156)" stroke-linecap="butt">
      <rect fill="none" x="542" width="43" height="42" y="268" clip-path="url(#clipPath2)"/>
      <text x="559.6826" xml:space="preserve" y="293.1543" clip-path="url(#clipPath2)" font-family="sans-serif" stroke="none">9</text>
    </g>
    <g fill="aqua" text-rendering="geometricPrecision" shape-rendering="geometricPrecision" transform="matrix(1,0,0,1,-79,-156)" stroke="aqua">
      <rect x="180" width="43" height="42" y="365" clip-path="url(#clipPath2)" stroke="none"/>
    </g>
    <g text-rendering="geometricPrecision" stroke-miterlimit="1.45" shape-rendering="geometricPrecision" transform="matrix(1,0,0,1,-79,-156)" stroke-linecap="butt">
      <rect fill="none" x="180" width="43" height="42" y="365" clip-path="url(#clipPath2)"/>
      <text x="197.6826" xml:space="preserve" y="390.1543" clip-path="url(#clipPath2)" font-family="sans-serif" stroke="none">2</text>
      <text x="96.1406" xml:space="preserve" y="390.1543" clip-path="url(#clipPath2)" font-family="sans-serif" stroke="none">times2Signal</text>
    </g>
    <g fill="aqua" text-rendering="geometricPrecision" shape-rendering="geometricPrecision" transform="matrix(1,0,0,1,-79,-156)" stroke="aqua">
      <rect x="361" width="43" height="42" y="365" clip-path="url(#clipPath2)" stroke="none"/>
    </g>
    <g text-rendering="geometricPrecision" stroke-miterlimit="1.45" shape-rendering="geometricPrecision" transform="matrix(1,0,0,1,-79,-156)" stroke-linecap="butt">
      <rect fill="none" x="361" width="43" height="42" y="365" clip-path="url(#clipPath2)"/>
      <text x="378.6826" xml:space="preserve" y="390.1543" clip-path="url(#clipPath2)" font-family="sans-serif" stroke="none">6</text>
    </g>
    <g fill="aqua" text-rendering="geometricPrecision" shape-rendering="geometricPrecision" transform="matrix(1,0,0,1,-79,-156)" stroke="aqua">
      <rect x="542" width="43" height="42" y="365" clip-path="url(#clipPath2)" stroke="none"/>
    </g>
    <g text-rendering="geometricPrecision" stroke-miterlimit="1.45" shape-rendering="geometricPrecision" transform="matrix(1,0,0,1,-79,-156)" stroke-linecap="butt">
      <rect fill="none" x="542" width="43" height="42" y="365" clip-path="url(#clipPath2)"/>
      <text x="555.8652" xml:space="preserve" y="390.1543" clip-path="url(#clipPath2)" font-family="sans-serif" stroke="none">18</text>
      <path fill="none" d="M223 192 L352 192" stroke-width="2" clip-path="url(#clipPath2)"/>
      <path d="M361 192 L347.5 186.375 L350.875 192 L347.5 197.625 Z" stroke-width="2" clip-path="url(#clipPath2)" stroke="none"/>
      <text x="248.6113" xml:space="preserve" y="185.1699" clip-path="url(#clipPath2)" font-family="sans-serif" stroke="none">.update(_ + 2)</text>
      <path fill="none" d="M404 192 L533 192" stroke-width="2" clip-path="url(#clipPath2)"/>
      <path d="M542 192 L528.5 186.375 L531.875 192 L528.5 197.625 Z" stroke-width="2" clip-path="url(#clipPath2)" stroke="none"/>
      <text x="431.6387" xml:space="preserve" y="185.1699" clip-path="url(#clipPath2)" font-family="sans-serif" stroke="none">.update(_ * 3)</text>
      <path fill="none" d="M201.5 213 L201.5 260" clip-path="url(#clipPath2)"/>
      <path d="M201.5 268 L206.5 256 L201.5 259 L196.5 256 Z" clip-path="url(#clipPath2)" stroke="none"/>
      <path fill="none" d="M382.5 213 L382.5 260" clip-path="url(#clipPath2)"/>
      <path d="M382.5 268 L387.5 256 L382.5 259 L377.5 256 Z" clip-path="url(#clipPath2)" stroke="none"/>
      <path fill="none" stroke-dasharray="6,2" d="M223 289 L353 289" clip-path="url(#clipPath2)"/>
      <path stroke-dasharray="6,2" d="M361 289 L349 284 L352 289 L349 294 Z" clip-path="url(#clipPath2)" stroke="none"/>
      <path fill="none" d="M563.5 213 L563.5 260" clip-path="url(#clipPath2)"/>
      <path d="M563.5 268 L568.5 256 L563.5 259 L558.5 256 Z" clip-path="url(#clipPath2)" stroke="none"/>
      <path fill="none" stroke-dasharray="6,2" d="M404 289 L534 289" clip-path="url(#clipPath2)"/>
      <path stroke-dasharray="6,2" d="M542 289 L530 284 L533 289 L530 294 Z" clip-path="url(#clipPath2)" stroke="none"/>
      <path fill="none" d="M201.5 310 L201.5 357" clip-path="url(#clipPath2)"/>
      <path d="M201.5 365 L206.5 353 L201.5 356 L196.5 353 Z" clip-path="url(#clipPath2)" stroke="none"/>
      <text x="205.5" xml:space="preserve" y="341.6543" clip-path="url(#clipPath2)" font-family="sans-serif" stroke="none">_ * 2</text>
      <path fill="none" stroke-dasharray="6,2" d="M223 386 L353 386" clip-path="url(#clipPath2)"/>
      <path stroke-dasharray="6,2" d="M361 386 L349 381 L352 386 L349 391 Z" clip-path="url(#clipPath2)" stroke="none"/>
      <path fill="none" d="M382.5 310 L382.5 357" clip-path="url(#clipPath2)"/>
      <path d="M382.5 365 L387.5 353 L382.5 356 L377.5 353 Z" clip-path="url(#clipPath2)" stroke="none"/>
      <text x="386.5" xml:space="preserve" y="341.6543" clip-path="url(#clipPath2)" font-family="sans-serif" stroke="none">_ * 2</text>
      <path fill="none" stroke-dasharray="6,2" d="M404 386 L534 386" clip-path="url(#clipPath2)"/>
      <path stroke-dasharray="6,2" d="M542 386 L530 381 L533 386 L530 391 Z" clip-path="url(#clipPath2)" stroke="none"/>
      <path fill="none" d="M563.5 310 L563.5 357" clip-path="url(#clipPath2)"/>
      <path d="M563.5 365 L568.5 353 L563.5 356 L558.5 353 Z" clip-path="url(#clipPath2)" stroke="none"/>
      <text x="567.5" xml:space="preserve" y="341.6543" clip-path="url(#clipPath2)" font-family="sans-serif" stroke="none">_ * 2</text>
      <path fill="none" d="M637 207 L637 369" clip-path="url(#clipPath2)"/>
      <path d="M637 377 L642 365 L637 368 L632 365 Z" clip-path="url(#clipPath2)" stroke="none"/>
    </g>
    <g text-rendering="geometricPrecision" stroke-miterlimit="1.45" shape-rendering="geometricPrecision" font-family="sans-serif" transform="matrix(0,1,-1,0,577.9688,81.3564)" stroke-linecap="butt">
      <text x="2" xml:space="preserve" y="13.1387" clip-path="url(#clipPath3)" stroke="none">Data propagation</text>
    </g>
    <g text-rendering="geometricPrecision" stroke-miterlimit="1.45" stroke-dasharray="6,2" shape-rendering="geometricPrecision" transform="matrix(1,0,0,1,-79,-156)" stroke-linecap="butt">
      <path fill="none" d="M216.5 452 L540.5 452" clip-path="url(#clipPath2)"/>
      <path d="M548.5 452 L536.5 447 L539.5 452 L536.5 457 Z" clip-path="url(#clipPath2)" stroke="none"/>
      <text x="367.6318" y="445.1699" clip-path="url(#clipPath2)" font-family="sans-serif" stroke-dasharray="none" stroke="none" xml:space="preserve">Time</text>
    </g>
  </g>
</svg>
