<svg width="40" height="40" viewBox="0 0 40 40" fill="none" xmlns="http://www.w3.org/2000/svg">
<path d="M0 5C0 2.23858 2.23858 0 5 0H35C37.7614 0 40 2.23858 40 5V35C40 37.7614 37.7614 40 35 40H5C2.23858 40 0 37.7614 0 35V5Z" fill="#2FFF8C"/>
<path d="M23.0253 14.2026C23.1356 14.0551 23.6427 13.8104 24.0938 13.608C26.1444 12.6934 28.7326 12.7954 30.6249 14.0175C31.1377 14.346 31.5907 14.7564 31.9653 15.2317C32.9251 16.4664 33.3809 18.2736 33.4417 19.8754C33.5345 22.3101 32.6419 24.8171 30.4953 26.2039C28.7182 27.3522 26.4436 27.3773 24.4985 26.6416C20.5923 25.1622 18.3209 20.7821 15.3617 18.0948C14.5363 17.3449 13.5589 16.6311 12.4328 16.5919C9.71355 16.4993 8.86577 19.9867 10.147 21.8567C11.5195 23.8617 14.3203 23.8883 16.1183 22.4843C16.3678 22.6411 16.5981 25.7709 16.6253 25.7521C16.0111 26.2148 15.6384 26.4564 14.8914 26.6933C12.9719 27.3099 10.7469 27.3428 8.99533 26.2227C7.55571 25.3002 6.70154 23.6844 6.25525 22.0513C5.65861 19.8722 6.11449 17.2696 7.55411 15.4953C8.97177 13.7806 11.1832 12.8934 13.4198 13.1421C16.0863 13.4449 18.0442 15.5125 19.7061 17.3951C20.5603 18.363 21.4849 19.2604 22.323 20.2425C23.2188 21.2951 24.1066 22.3901 25.2903 23.1447C25.8677 23.5134 26.5283 23.7973 27.2178 23.7895C28.0839 23.7498 28.8841 23.324 29.39 22.6333C30.6553 20.9704 30.2618 18.4776 28.5614 17.2539C26.973 16.1118 24.9032 16.584 23.5003 17.7826C23.3356 17.6069 23.0476 15.0623 23.0253 14.2026Z" fill="#252A36"/>
</svg>
